HIERARCHY
ROOT hip
{
  OFFSET 0.00112043 5.09927 -9.65472
  CHANNELS 6 Xposition Yposition Zposition Zrotation Xrotation Yrotation
  JOINT abdomen
  {
    OFFSET 0 -1.186 -1.5018
    CHANNELS 3 Zrotation Xrotation Yrotation
    JOINT abdomen2
    {
      OFFSET 0 9.964 0.2134
      CHANNELS 3 Zrotation Xrotation Yrotation
      JOINT chest
      {
        OFFSET 0 13.134 -3.2573
        CHANNELS 3 Zrotation Xrotation Yrotation
        JOINT neck
        {
          OFFSET 0 20.686 -1.6905
          CHANNELS 3 Zrotation Xrotation Yrotation
          JOINT head
          {
            OFFSET 0 7.238 -0.1237
            CHANNELS 3 Zrotation Xrotation Yrotation
            End Site
            {
              OFFSET 0 0 0
            }
          }
        }
        JOINT lCollar
        {
          OFFSET 1.7069 20.075 5.0056
          CHANNELS 3 Zrotation Xrotation Yrotation
          JOINT lShldr
          {
            OFFSET 13.6458 -0.047 -4.849
            CHANNELS 3 Zrotation Xrotation Yrotation
            JOINT lForeArm
            {
              OFFSET 28.3255 -0.9759 2.2888
              CHANNELS 3 Zrotation Xrotation Yrotation
              JOINT lHand
              {
                OFFSET 22.1583 -0.53 10.8316
                CHANNELS 3 Zrotation Xrotation Yrotation
                JOINT lThumb1
                {
                  OFFSET 0.786 0.112 2.5817
                  CHANNELS 3 Zrotation Xrotation Yrotation
                  JOINT lThumb2
                  {
                    OFFSET 0.3601 -0.878 4.2331
                    CHANNELS 3 Zrotation Xrotation Yrotation
                    JOINT lThumb2_End
                    {
                      OFFSET 1.8127 -1.216 2.2227
                      CHANNELS 3 Zrotation Xrotation Yrotation
                      End Site
                      {
                        OFFSET 0.0181 -0.0122 0.0222
                      }
                    }
                  }
                }
                JOINT lCarpal1
                {
                  OFFSET 0.9571 1.114 1.7695
                  CHANNELS 3 Zrotation Xrotation Yrotation
                  JOINT lIndex1
                  {
                    OFFSET 4.1246 0.487 4.1451
                    CHANNELS 3 Zrotation Xrotation Yrotation
                    JOINT lIndex2
                    {
                      OFFSET 3.4052 -1.454 2.7682
                      CHANNELS 3 Zrotation Xrotation Yrotation
                      JOINT lIndex2_End
                      {
                        OFFSET 1.4531 -1.795 1.2713
                        CHANNELS 3 Zrotation Xrotation Yrotation
                        End Site
                        {
                          OFFSET 0.0145 -0.0179 0.0127
                        }
                      }
                    }
                  }
                  JOINT lMid1
                  {
                    OFFSET 5.6954 0.21 2.1184
                    CHANNELS 3 Zrotation Xrotation Yrotation
                    JOINT lMid2
                    {
                      OFFSET 3.9766 -1.54 2.3863
                      CHANNELS 3 Zrotation Xrotation Yrotation
                      JOINT lMid2_End
                      {
                        OFFSET 1.4042 -1.926 1.125
                        CHANNELS 3 Zrotation Xrotation Yrotation
                        End Site
                        {
                          OFFSET 0.014 -0.0193 0.0113
                        }
                      }
                    }
                  }
                }
                JOINT lCarpal2
                {
                  OFFSET 2.0956 0.66 -0.3894
                  CHANNELS 3 Zrotation Xrotation Yrotation
                  JOINT lRing1
                  {
                    OFFSET 5.0395 -0.09 2.4971
                    CHANNELS 3 Zrotation Xrotation Yrotation
                    JOINT lRing2
                    {
                      OFFSET 3.7921 -1.552 1.4806
                      CHANNELS 3 Zrotation Xrotation Yrotation
                      JOINT lRing2_End
                      {
                        OFFSET 1.4655 -1.808 0.9609
                        CHANNELS 3 Zrotation Xrotation Yrotation
                        End Site
                        {
                          OFFSET 0.0147 -0.0181 0.0096
                        }
                      }
                    }
                  }
                  JOINT lPinky1
                  {
                    OFFSET 4.9141 -1.269 0.3591
                    CHANNELS 3 Zrotation Xrotation Yrotation
                    JOINT lPinky2
                    {
                      OFFSET 3.1477 -1.685 0.8462
                      CHANNELS 3 Zrotation Xrotation Yrotation
                      JOINT lPinky2_End
                      {
                        OFFSET 0.8055 -1.585 0.7955
                        CHANNELS 3 Zrotation Xrotation Yrotation
                        End Site
                        {
                          OFFSET 0.0081 -0.0158 0.008
                        }
                      }
                    }
                  }
                }
              }
            }
          }
        }
        JOINT rCollar
        {
          OFFSET -1.7069 20.075 5.0056
          CHANNELS 3 Zrotation Xrotation Yrotation
          JOINT rShldr
          {
            OFFSET -13.6458 -0.047 -4.849
            CHANNELS 3 Zrotation Xrotation Yrotation
            JOINT rForeArm
            {
              OFFSET -28.3255 -0.9759 2.2888
              CHANNELS 3 Zrotation Xrotation Yrotation
              JOINT rHand
              {
                OFFSET -22.1583 -0.53 10.8316
                CHANNELS 3 Zrotation Xrotation Yrotation
                JOINT rThumb1
                {
                  OFFSET -0.786 0.112 2.5817
                  CHANNELS 3 Zrotation Xrotation Yrotation
                  JOINT rThumb2
                  {
                    OFFSET -0.3601 -0.878 4.2331
                    CHANNELS 3 Zrotation Xrotation Yrotation
                    JOINT rThumb2_End
                    {
                      OFFSET -1.8127 -1.216 2.2227
                      CHANNELS 3 Zrotation Xrotation Yrotation
                      End Site
                      {
                        OFFSET -0.0181 -0.0122 0.0222
                      }
                    }
                  }
                }
                JOINT rCarpal1
                {
                  OFFSET -0.9571 1.114 1.7695
                  CHANNELS 3 Zrotation Xrotation Yrotation
                  JOINT rIndex1
                  {
                    OFFSET -4.1246 0.487 4.1451
                    CHANNELS 3 Zrotation Xrotation Yrotation
                    JOINT rIndex2
                    {
                      OFFSET -3.4052 -1.454 2.7682
                      CHANNELS 3 Zrotation Xrotation Yrotation
                      JOINT rIndex2_End
                      {
                        OFFSET -1.4531 -1.795 1.2713
                        CHANNELS 3 Zrotation Xrotation Yrotation
                        End Site
                        {
                          OFFSET -0.0145 -0.018 0.0127
                        }
                      }
                    }
                  }
                  JOINT rMid1
                  {
                    OFFSET -5.6954 0.21 2.1184
                    CHANNELS 3 Zrotation Xrotation Yrotation
                    JOINT rMid2
                    {
                      OFFSET -3.9766 -1.54 2.3863
                      CHANNELS 3 Zrotation Xrotation Yrotation
                      JOINT rMid2_End
                      {
                        OFFSET -1.4042 -1.926 1.125
                        CHANNELS 3 Zrotation Xrotation Yrotation
                        End Site
                        {
                          OFFSET -0.014 -0.0193 0.0113
                        }
                      }
                    }
                  }
                }
                JOINT rCarpal2
                {
                  OFFSET -2.0956 0.66 -0.3894
                  CHANNELS 3 Zrotation Xrotation Yrotation
                  JOINT rRing1
                  {
                    OFFSET -5.0395 -0.09 2.4971
                    CHANNELS 3 Zrotation Xrotation Yrotation
                    JOINT rRing2
                    {
                      OFFSET -3.7921 -1.552 1.4806
                      CHANNELS 3 Zrotation Xrotation Yrotation
                      JOINT rRing2_End
                      {
                        OFFSET -1.4655 -1.808 0.9609
                        CHANNELS 3 Zrotation Xrotation Yrotation
                        End Site
                        {
                          OFFSET -0.0147 -0.0181 0.0096
                        }
                      }
                    }
                  }
                  JOINT rPinky1
                  {
                    OFFSET -4.9141 -1.269 0.3592
                    CHANNELS 3 Zrotation Xrotation Yrotation
                    JOINT rPinky2
                    {
                      OFFSET -3.1477 -1.685 0.8462
                      CHANNELS 3 Zrotation Xrotation Yrotation
                      JOINT rPinky2_End
                      {
                        OFFSET -0.8055 -1.585 0.7955
                        CHANNELS 3 Zrotation Xrotation Yrotation
                        End Site
                        {
                          OFFSET -0.0081 -0.0158 0.008
                        }
                      }
                    }
                  }
                }
              }
            }
          }
        }
      }
    }
  }
  JOINT lThigh
  {
    OFFSET 8.367 -8.2066 0.5982
    CHANNELS 3 Zrotation Xrotation Yrotation
    JOINT lShin
    {
      OFFSET 2.1923 -43.463 -0.4932
      CHANNELS 3 Zrotation Xrotation Yrotation
      JOINT lFoot
      {
        OFFSET 0.7333 -45.8593 -2.6451
        CHANNELS 3 Zrotation Xrotation Yrotation
        End Site
        {
          OFFSET 2.6618 -4.2699 12.3931
        }
      }
    }
  }
  JOINT rThigh
  {
    OFFSET -8.367 -8.2066 0.5982
    CHANNELS 3 Zrotation Xrotation Yrotation
    JOINT rShin
    {
      OFFSET -2.1923 -43.463 -0.4931
      CHANNELS 3 Zrotation Xrotation Yrotation
      JOINT rFoot
      {
        OFFSET -0.7333 -45.8593 -2.6451
        CHANNELS 3 Zrotation Xrotation Yrotation
        End Site
        {
          OFFSET -2.6618 -4.2699 12.3931
        }
      }
    }
  }
}
MOTION
Frames:	4
Frame Time:	0.0333333
0 91.7903 2.51682 0 0 -0 0 0 -0 0 0 -0 0 0 -0 0 0 -0 0 0 -0 0 0 -0 1.66051 0.0835086 5.75766 -0.0175111 0.895433 15.7816 7.95139e-016 -1.98785e-016 -0 5.46658e-016 -3.97569e-016 -0 5.96354e-016 0 -0 3.97569e-016 1.98785e-016 9.54166e-015 1.49089e-016 -3.97569e-016 -0 6.4605e-016 0 3.18055e-015 5.96354e-016 0 3.18055e-015 8.94531e-016 -1.98785e-016 6.36111e-015 6.4605e-016 0 3.18055e-015 5.96354e-016 0 3.18055e-015 8.94531e-016 -1.98785e-016 6.36111e-015 1.49089e-016 -3.97569e-016 -0 6.4605e-016 0 3.18055e-015 5.96354e-016 0 3.18055e-015 8.94531e-016 -1.98785e-016 6.36111e-015 6.4605e-016 0 3.18055e-015 5.96354e-016 0 3.18055e-015 8.94531e-016 -1.98785e-016 6.36111e-015 0 0 -0 -1.4496 0.0636048 -5.0245 -1.74811 1.20616 -16.8394 -1.19271e-015 1.98785e-016 -3.18055e-015 -3.97569e-016 1.98785e-016 -3.18055e-015 -2.98177e-016 1.98785e-016 -3.18055e-015 -2.98177e-016 3.97569e-016 -0 4.96962e-016 0 -6.36111e-015 -9.93923e-017 3.97569e-016 -0 -8.94531e-016 5.96354e-016 -0 -3.97569e-016 3.97569e-016 -0 -9.93923e-017 3.97569e-016 -0 -8.94531e-016 5.96354e-016 -0 -3.97569e-016 3.97569e-016 -0 4.96962e-016 0 -6.36111e-015 -9.93923e-017 3.97569e-016 -0 -8.94531e-016 5.96354e-016 -0 -3.97569e-016 3.97569e-016 -0 -9.93923e-017 3.97569e-016 -0 -8.94531e-016 5.96354e-016 -0 -3.97569e-016 3.97569e-016 -0 -4.66111 -0.998717 0.12318 0.00986924 1.54847 0.176523 4.65186 -0.572283 -0.254274 4.66111 -0.998765 -0.123176 -0.00986867 1.54869 -0.176537 -4.65186 -0.572453 0.25427 
5.74632 38.5231 45.3672 -43.5783 -33.0364 119.809 0.020297 -0.371937 0.0311473 0.0407741 -0.743815 0.0623537 0.0407937 -0.743824 0.0623559 2.95453e-005 -11.175 1.71969e-005 -0.0426453 -16.7255 -0.0176078 20.81 11.7004 -11.5545 -23.9515 -77.2542 -31.5654 -23.169 -9.59892 -48.6618 -0.135637 8.53198 -20.656 3.20186e-006 -9.45319e-007 -5.4678e-007 -4.7266e-007 -1.60093e-006 2.33647e-007 3.20186e-006 -9.45319e-007 -5.4678e-007 -4.77083e-015 -3.18055e-015 -0 3.20186e-006 -9.45319e-007 -5.4678e-007 -4.7266e-007 -1.60093e-006 2.33647e-007 3.20186e-006 -9.45319e-007 -5.4678e-007 3.20186e-006 -9.45319e-007 -5.4678e-007 -4.7266e-007 -1.60093e-006 2.33647e-007 3.20186e-006 -9.45319e-007 -5.4678e-007 -4.77083e-015 -3.18055e-015 -0 3.20186e-006 -9.45319e-007 -5.4678e-007 -4.7266e-007 -1.60093e-006 2.33647e-007 3.20186e-006 -9.45319e-007 -5.4678e-007 3.20186e-006 -9.45319e-007 -5.4678e-007 -4.7266e-007 -1.60093e-006 2.33647e-007 3.20186e-006 -9.45319e-007 -5.4678e-007 -20.8263 11.7046 11.5399 24.7387 -77.1407 33.0769 21.8519 -11.2886 47.4584 0.232633 7.97056 20.8467 -1.31101e-006 -7.11617e-008 -6.0045e-006 -1.22303e-006 -1.27661e-006 1.16079e-007 -1.31101e-006 -7.11616e-008 -6.0045e-006 3.18055e-015 -3.18055e-015 6.36111e-015 -1.31101e-006 -7.11617e-008 -6.0045e-006 -1.22303e-006 -1.27661e-006 1.16079e-007 -1.31101e-006 -7.11616e-008 -6.0045e-006 -1.31101e-006 -7.11617e-008 -6.0045e-006 -1.22303e-006 -1.27661e-006 1.16079e-007 -1.31101e-006 -7.11616e-008 -6.0045e-006 3.18055e-015 -3.18055e-015 6.36111e-015 -1.31101e-006 -7.11617e-008 -6.0045e-006 -1.22303e-006 -1.27661e-006 1.16079e-007 -1.31101e-006 -7.11616e-008 -6.0045e-006 -1.31101e-006 -7.11617e-008 -6.0045e-006 -1.22303e-006 -1.27661e-006 1.16079e-007 -1.31101e-006 -7.11616e-008 -6.0045e-006 73.0611 -65.5659 68.7678 -168.39 83.811 173.862 9.80922 17.9865 1.76637 -72.8498 -66.8697 -68.0147 168.596 83.8342 -174.065 -9.82543 17.9138 -1.75907 
-1.65699 12.5548 66.479 43.3492 -70.9565 -135.039 0.0412784 -0.615521 0.0459214 0.0830613 -1.23101 0.0922914 0.0830602 -1.23102 0.0922922 8.59272e-006 -15.9194 1.21492e-005 -0.0649484 -23.384 -0.0256291 31.8926 16.8964 -17.6003 -139.319 -61.9803 -148.024 -36.0935 2.46606 -74.1354 1.23597 11.1025 -30.4424 -5.76822e-007 -1.42511e-006 6.51055e-007 5.76822e-007 1.42511e-006 -6.51055e-007 -5.76822e-007 -1.42511e-006 6.51055e-007 3.18055e-015 2.38542e-015 -6.36111e-015 -5.76822e-007 -1.42511e-006 6.51055e-007 5.76822e-007 1.42511e-006 -6.51055e-007 -5.76822e-007 -1.42511e-006 6.51055e-007 -5.76822e-007 -1.42511e-006 6.51055e-007 5.76822e-007 1.42511e-006 -6.51055e-007 -5.76822e-007 -1.42511e-006 6.51055e-007 3.18055e-015 2.38542e-015 -6.36111e-015 -5.76822e-007 -1.42511e-006 6.51055e-007 5.76822e-007 1.42511e-006 -6.51055e-007 -5.76822e-007 -1.42511e-006 6.51055e-007 -5.76822e-007 -1.42511e-006 6.51055e-007 5.76822e-007 1.42511e-006 -6.51055e-007 -5.76822e-007 -1.42511e-006 6.51055e-007 -31.9097 16.9044 17.5767 138.921 -61.8709 148.42 35.5938 0.449197 73.1523 -1.01577 10.2996 30.6676 -4.77083e-015 1.27222e-014 -0 -9.54166e-015 3.18055e-015 -3.18055e-015 -1.27222e-014 3.18055e-015 -0 -3.53113e-031 6.36111e-015 3.18055e-015 -1.41245e-030 6.36111e-015 1.27222e-014 -3.18055e-015 3.18055e-015 -3.18055e-015 -4.77083e-015 3.18055e-015 -3.18055e-015 -1.41245e-030 6.36111e-015 1.27222e-014 -3.18055e-015 3.18055e-015 -3.18055e-015 -4.77083e-015 3.18055e-015 -3.18055e-015 -3.53113e-031 6.36111e-015 3.18055e-015 -1.41245e-030 6.36111e-015 1.27222e-014 -3.18055e-015 3.18055e-015 -3.18055e-015 -4.77083e-015 3.18055e-015 -3.18055e-015 -1.41245e-030 6.36111e-015 1.27222e-014 -3.18055e-015 3.18055e-015 -3.18055e-015 -4.77083e-015 3.18055e-015 -3.18055e-015 150.737 -47.9382 136.928 -177.658 41.0222 -171.377 11.3998 29.3116 5.11539 -153.414 -49.0382 -139.476 177.703 41.0099 171.277 -11.4402 29.1415 -5.13503 
0.0211624 18.4678 60.6294 -0.00886773 -71.0095 179.991 0.0355482 -0.731007 0.0429562 0.0716534 -1.462 0.0863765 0.0716534 -1.46199 0.0863765 1.09256e-007 -14.232 -2.303e-006 -0.0588641 -19.9747 -0.0212563 29.6011 16.4909 -17.249 -133.143 -69.4158 -141.782 -33.6992 -1.3288 -68.7757 0.908797 11.194 -28.6072 -1.55228e-006 1.49699e-006 -1.60413e-006 -3.10127e-007 2.56184e-006 1.30167e-006 -1.55228e-006 1.49699e-006 -1.60413e-006 4.77083e-015 -1.59028e-015 -0 -1.55228e-006 1.49699e-006 -1.60413e-006 -3.10127e-007 2.56184e-006 1.30167e-006 -1.55228e-006 1.49699e-006 -1.60413e-006 -1.55228e-006 1.49699e-006 -1.60413e-006 -3.10127e-007 2.56184e-006 1.30167e-006 -1.55228e-006 1.49699e-006 -1.60413e-006 4.77083e-015 -1.59028e-015 -0 -1.55228e-006 1.49699e-006 -1.60413e-006 -3.10127e-007 2.56184e-006 1.30167e-006 -1.55228e-006 1.49699e-006 -1.60413e-006 -1.55228e-006 1.49699e-006 -1.60413e-006 -3.10127e-007 2.56184e-006 1.30167e-006 -1.55228e-006 1.49699e-006 -1.60413e-006 -29.6065 16.5001 17.2218 132.651 -69.2854 142.066 33.0138 -3.31189 67.7705 -0.719601 10.4344 28.8463 -6.36111e-015 1.59028e-015 6.36111e-015 6.36111e-015 7.95139e-016 -0 -6.36111e-015 7.95139e-016 3.18055e-015 -3.18055e-015 -7.95139e-016 3.18055e-015 -1.59028e-015 2.38542e-015 9.54166e-015 3.18055e-015 5.56597e-015 6.36111e-015 -3.97569e-015 2.38542e-015 -0 -1.59028e-015 2.38542e-015 9.54166e-015 3.18055e-015 5.56597e-015 6.36111e-015 -3.97569e-015 2.38542e-015 -0 -3.18055e-015 -7.95139e-016 3.18055e-015 -1.59028e-015 2.38542e-015 9.54166e-015 3.18055e-015 5.56597e-015 6.36111e-015 -3.97569e-015 2.38542e-015 -0 -1.59028e-015 2.38542e-015 9.54166e-015 3.18055e-015 5.56597e-015 6.36111e-015 -3.97569e-015 2.38542e-015 -0 137.884 -55.2837 125.813 -177.134 50.5721 -173.781 11.0534 26.0454 3.93782 -140.691 -56.6294 -128.335 177.187 50.5677 173.691 -11.0901 25.9025 -3.94743 
